<svg width="16" height="16" viewBox="0 0 16 16" fill="none" xmlns="http://www.w3.org/2000/svg">
<path d="M15.9939 9.07619H14.9272C14.9272 5.21028 11.8187 2.06667 7.99695 2.06667C4.17523 2.06667 1.06667 5.21028 1.06667 9.07619H0C0 4.62209 3.58704 1 7.99695 1C12.4069 1 15.9939 4.62209 15.9939 9.07619Z" fill="url(#paint0_linear_1330_819)"/>
<path d="M12.4876 11.4716V15.2811H11.4209V11.4274C11.4211 11.2374 11.3838 11.0492 11.3113 10.8735C11.2387 10.6979 11.1322 10.5383 10.9979 10.4039C10.8636 10.2694 10.7041 10.1628 10.5286 10.09C10.353 10.0172 10.1648 9.9798 9.9748 9.9798C9.2129 9.9798 8.53176 10.5893 8.53176 11.3375V15.2781H7.46509V11.339C7.46509 10.5908 6.78394 9.98132 6.02204 9.98132C5.83201 9.98132 5.64384 10.0188 5.46829 10.0915C5.29274 10.1643 5.13326 10.271 4.99895 10.4054C4.86465 10.5399 4.75817 10.6994 4.68559 10.8751C4.61301 11.0507 4.57574 11.2389 4.57594 11.4289V15.2796H3.50928V11.4701C3.5101 10.948 3.67353 10.4391 3.97686 10.0142C4.28018 9.58923 4.70834 9.26933 5.20184 9.09891C5.69533 8.92849 6.22965 8.91602 6.73056 9.06323C7.23147 9.21045 7.67408 9.51004 7.9969 9.92036C8.31945 9.50871 8.76242 9.20795 9.26403 9.06002C9.76565 8.91209 10.3009 8.92435 10.7952 9.0951C11.2895 9.26586 11.7183 9.58659 12.0216 10.0126C12.325 10.4386 12.4879 10.9486 12.4876 11.4716Z" fill="#20201F"/>
<defs>
<linearGradient id="paint0_linear_1330_819" x1="-0.993987" y1="4.96843" x2="12.6631" y2="-0.427964" gradientUnits="userSpaceOnUse">
<stop stop-color="#9900FF"/>
<stop offset="1" stop-color="#FA1E32"/>
</linearGradient>
</defs>
</svg>
